<svg fill="none" height="23" viewBox="0 0 23 23" width="23" xmlns="http://www.w3.org/2000/svg"><path d="m5.3602 4.8985c1.6778-1.45383 3.82427-2.25272 6.0443-2.24963 5.1068 0 9.2463 4.13958 9.2463 9.24633 0 1.975-.6195 3.8058-1.6735 5.3074l-2.9496-5.3074h2.7739c.0001-1.4502-.426-2.86839-1.2255-4.07832-.7994-1.20993-1.9368-2.15818-3.2708-2.72686-1.3341-.56868-2.8058-.7327-4.2323-.47166-1.42647.26104-2.74476.93562-3.79094 1.93986zm12.0886 13.9934c-1.6778 1.4538-3.8242 2.2527-6.0443 2.2496-5.10672 0-9.2463-4.1396-9.2463-9.2463 0-1.97502.61951-3.80579 1.67359-5.30739l2.94957 5.30739h-2.77389c-.00012 1.4502.42602 2.8684 1.22545 4.0783.79942 1.2099 1.93685 2.1582 3.27087 2.7269 1.33401.5687 2.80581.7327 4.23221.4716 1.4265-.261 2.7448-.9356 3.791-1.9398z" fill="#fefefe"/></svg>