<svg fill="none" height="23" viewBox="0 0 23 23" width="23" xmlns="http://www.w3.org/2000/svg" xmlns:xlink="http://www.w3.org/1999/xlink"><clipPath id="a"><path d="m.691162.799622h22.1912v22.1912h-22.1912z"/></clipPath><g clip-path="url(#a)"><path d="m11.7868 21.1415c-5.10669 0-9.24627-4.1396-9.24627-9.2463 0-5.10676 4.13958-9.24634 9.24627-9.24634 5.1068 0 9.2464 4.13958 9.2464 9.24634 0 5.1067-4.1396 9.2463-9.2464 9.2463zm0-1.8493c1.9619 0 3.8433-.7793 5.2306-2.1665 1.3872-1.3872 2.1665-3.2687 2.1665-5.2305 0-1.96183-.7793-3.8433-2.1665-5.23052-1.3873-1.38722-3.2687-2.16655-5.2306-2.16655-1.96177 0-3.84324.77933-5.23046 2.16655s-2.16655 3.26869-2.16655 5.23052c0 1.9618.77933 3.8433 2.16655 5.2305s3.26869 2.1665 5.23046 2.1665zm.9247-7.397h3.6985v1.8493h-5.5478v-6.47247h1.8493z" fill="#fefefe"/></g></svg>